<?xml version="1.0" encoding="UTF-8"?>
<svg xmlns="http://www.w3.org/2000/svg" viewBox="0 0 1200 800">
  <!-- Background -->
  <rect width="1200" height="800" fill="#FFFFFF"/>
  
  <!-- Header -->
  <rect x="50" y="50" width="1100" height="80" fill="#F7F9FC" rx="6"/>
  <text x="80" y="90" font-family="Inter, sans-serif" font-weight="700" font-size="24" fill="#0F172A">Research Impact Dashboard</text>
  <text x="80" y="115" font-family="Inter, sans-serif" font-weight="500" font-size="16" fill="#63687E">Measuring the business value of strategic research</text>
  
  <!-- Timeframe Selector -->
  <rect x="850" y="65" width="100" height="30" rx="4" fill="#3D5CFF" stroke="#3D5CFF" stroke-width="1"/>
  <text x="900" y="85" font-family="Inter, sans-serif" font-weight="500" font-size="14" text-anchor="middle" fill="#FFFFFF">Quarterly</text>
  
  <rect x="960" y="65" width="100" height="30" rx="4" fill="#F7F9FC" stroke="#E5E9F2" stroke-width="1"/>
  <text x="1010" y="85" font-family="Inter, sans-serif" font-weight="500" font-size="14" text-anchor="middle" fill="#63687E">Yearly</text>
  
  <!-- Metrics Cards Row -->
  <rect x="50" y="150" width="260" height="120" rx="6" fill="#FFFFFF" stroke="#E5E9F2" stroke-width="1"/>
  <text x="70" y="180" font-family="Inter, sans-serif" font-weight="500" font-size="14" fill="#63687E">Research Studies</text>
  <text x="230" y="180" font-family="Inter, sans-serif" font-weight="500" font-size="14" fill="#22C55E">+25%</text>
  <text x="70" y="215" font-family="Inter, sans-serif" font-weight="700" font-size="28" fill="#0F172A">95</text>
  <text x="70" y="240" font-family="Inter, sans-serif" font-weight="400" font-size="12" fill="#63687E">Total studies in past year</text>
  
  <rect x="330" y="150" width="260" height="120" rx="6" fill="#FFFFFF" stroke="#E5E9F2" stroke-width="1"/>
  <text x="350" y="180" font-family="Inter, sans-serif" font-weight="500" font-size="14" fill="#63687E">Product Changes</text>
  <text x="510" y="180" font-family="Inter, sans-serif" font-weight="500" font-size="14" fill="#22C55E">+38%</text>
  <text x="350" y="215" font-family="Inter, sans-serif" font-weight="700" font-size="28" fill="#0F172A">142</text>
  <text x="350" y="240" font-family="Inter, sans-serif" font-weight="400" font-size="12" fill="#63687E">Features influenced by research</text>
  
  <rect x="610" y="150" width="260" height="120" rx="6" fill="#FFFFFF" stroke="#E5E9F2" stroke-width="1"/>
  <text x="630" y="180" font-family="Inter, sans-serif" font-weight="500" font-size="14" fill="#63687E">ARPU Increase</text>
  <text x="790" y="180" font-family="Inter, sans-serif" font-weight="500" font-size="14" fill="#22C55E">+15%</text>
  <text x="630" y="215" font-family="Inter, sans-serif" font-weight="700" font-size="28" fill="#0F172A">$3.42</text>
  <text x="630" y="240" font-family="Inter, sans-serif" font-weight="400" font-size="12" fill="#63687E">Across influenced products</text>
  
  <rect x="890" y="150" width="260" height="120" rx="6" fill="#FFFFFF" stroke="#E5E9F2" stroke-width="1"/>
  <text x="910" y="180" font-family="Inter, sans-serif" font-weight="500" font-size="14" fill="#63687E">Time to Insight</text>
  <text x="1070" y="180" font-family="Inter, sans-serif" font-weight="500" font-size="14" fill="#22C55E">-35%</text>
  <text x="910" y="215" font-family="Inter, sans-serif" font-weight="700" font-size="28" fill="#0F172A">8.5 days</text>
  <text x="910" y="240" font-family="Inter, sans-serif" font-weight="400" font-size="12" fill="#63687E">Average time from question to action</text>
  
  <!-- Charts Row -->
  <rect x="50" y="290" width="540" height="300" rx="6" fill="#FFFFFF" stroke="#E5E9F2" stroke-width="1"/>
  <text x="70" y="320" font-family="Inter, sans-serif" font-weight="600" font-size="18" fill="#0F172A">Research Growth</text>
  
  <!-- Line Chart -->
  <rect x="70" y="340" width="500" height="230" fill="#FFFFFF"/>
  
  <!-- Chart Grid -->
  <line x1="70" y1="570" x2="570" y2="570" stroke="#E5E9F2" stroke-width="1"/>
  <line x1="70" y1="510" x2="570" y2="510" stroke="#E5E9F2" stroke-width="1" stroke-dasharray="5,5"/>
  <line x1="70" y1="450" x2="570" y2="450" stroke="#E5E9F2" stroke-width="1" stroke-dasharray="5,5"/>
  <line x1="70" y1="390" x2="570" y2="390" stroke="#E5E9F2" stroke-width="1" stroke-dasharray="5,5"/>
  
  <!-- X-Axis Labels -->
  <text x="132" y="590" font-family="Inter, sans-serif" font-weight="400" font-size="12" text-anchor="middle" fill="#63687E">Q1 2021</text>
  <text x="195" y="590" font-family="Inter, sans-serif" font-weight="400" font-size="12" text-anchor="middle" fill="#63687E">Q2 2021</text>
  <text x="258" y="590" font-family="Inter, sans-serif" font-weight="400" font-size="12" text-anchor="middle" fill="#63687E">Q3 2021</text>
  <text x="321" y="590" font-family="Inter, sans-serif" font-weight="400" font-size="12" text-anchor="middle" fill="#63687E">Q4 2021</text>
  <text x="384" y="590" font-family="Inter, sans-serif" font-weight="400" font-size="12" text-anchor="middle" fill="#63687E">Q1 2022</text>
  <text x="447" y="590" font-family="Inter, sans-serif" font-weight="400" font-size="12" text-anchor="middle" fill="#63687E">Q2 2022</text>
  <text x="510" y="590" font-family="Inter, sans-serif" font-weight="400" font-size="12" text-anchor="middle" fill="#63687E">Q3 2022</text>
  
  <!-- Line Chart Data -->
  <polyline points="132,550 195,540 258,530 321,510 384,490 447,460 510,420" fill="none" stroke="#3D5CFF" stroke-width="2"/>
  <polyline points="132,530 195,510 258,480 321,450 384,410 447,380 510,350" fill="none" stroke="#005E5A" stroke-width="2"/>
  
  <!-- Legend -->
  <rect x="380" y="340" width="12" height="2" fill="#3D5CFF"/>
  <text x="400" y="345" font-family="Inter, sans-serif" font-weight="400" font-size="12" fill="#63687E">Studies</text>
  
  <rect x="460" y="340" width="12" height="2" fill="#005E5A"/>
  <text x="480" y="345" font-family="Inter, sans-serif" font-weight="400" font-size="12" fill="#63687E">Insights</text>
  
  <!-- Bar Chart -->
  <rect x="610" y="290" width="540" height="300" rx="6" fill="#FFFFFF" stroke="#E5E9F2" stroke-width="1"/>
  <text x="630" y="320" font-family="Inter, sans-serif" font-weight="600" font-size="18" fill="#0F172A">Impact by Product</text>
  
  <!-- Chart Grid -->
  <line x1="630" y1="570" x2="1130" y2="570" stroke="#E5E9F2" stroke-width="1"/>
  <line x1="630" y1="510" x2="1130" y2="510" stroke="#E5E9F2" stroke-width="1" stroke-dasharray="5,5"/>
  <line x1="630" y1="450" x2="1130" y2="450" stroke="#E5E9F2" stroke-width="1" stroke-dasharray="5,5"/>
  <line x1="630" y1="390" x2="1130" y2="390" stroke="#E5E9F2" stroke-width="1" stroke-dasharray="5,5"/>
  
  <!-- X-Axis Labels -->
  <text x="730" y="590" font-family="Inter, sans-serif" font-weight="400" font-size="12" text-anchor="middle" fill="#63687E">Kubernetes</text>
  <text x="830" y="590" font-family="Inter, sans-serif" font-weight="400" font-size="12" text-anchor="middle" fill="#63687E">App Platform</text>
  <text x="930" y="590" font-family="Inter, sans-serif" font-weight="400" font-size="12" text-anchor="middle" fill="#63687E">Database</text>
  <text x="1030" y="590" font-family="Inter, sans-serif" font-weight="400" font-size="12" text-anchor="middle" fill="#63687E">Networking</text>
  
  <!-- Bar Chart Data -->
  <rect x="705" y="490" width="50" height="80" fill="#3D5CFF"/>
  <rect x="705" y="530" width="50" height="40" fill="#005E5A"/>
  
  <rect x="805" y="510" width="50" height="60" fill="#3D5CFF"/>
  <rect x="805" y="535" width="50" height="35" fill="#005E5A"/>
  
  <rect x="905" y="500" width="50" height="70" fill="#3D5CFF"/>
  <rect x="905" y="540" width="50" height="30" fill="#005E5A"/>
  
  <rect x="1005" y="530" width="50" height="40" fill="#3D5CFF"/>
  <rect x="1005" y="550" width="50" height="20" fill="#005E5A"/>
  
  <!-- Legend -->
  <rect x="940" y="340" width="12" height="12" fill="#3D5CFF"/>
  <text x="960" y="350" font-family="Inter, sans-serif" font-weight="400" font-size="12" fill="#63687E">Changes</text>
  
  <rect x="1030" y="340" width="12" height="12" fill="#005E5A"/>
  <text x="1050" y="350" font-family="Inter, sans-serif" font-weight="400" font-size="12" fill="#63687E">ARPU</text>
  
  <!-- Bottom Row -->
  <rect x="50" y="610" width="340" height="170" rx="6" fill="#FFFFFF" stroke="#E5E9F2" stroke-width="1"/>
  <text x="70" y="640" font-family="Inter, sans-serif" font-weight="600" font-size="18" fill="#0F172A">Research Type Distribution</text>
  
  <!-- Pie Chart -->
  <circle cx="220" cy="710" r="60" fill="transparent" stroke="#E5E9F2" stroke-width="1"/>
  <path d="M 220 710 L 220 650 A 60 60 0 0 1 273 740 Z" fill="#3D5CFF"/>
  <path d="M 220 710 L 273 740 A 60 60 0 0 1 180 767 Z" fill="#005E5A"/>
  <path d="M 220 710 L 180 767 A 60 60 0 0 1 160 670 Z" fill="#FFD43B"/>
  <path d="M 220 710 L 160 670 A 60 60 0 0 1 210 652 Z" fill="#FF8787"/>
  <path d="M 220 710 L 210 652 A 60 60 0 0 1 220 650 Z" fill="#63687E"/>
  
  <!-- Pie Chart Labels -->
  <text x="290" y="680" font-family="Inter, sans-serif" font-weight="400" font-size="12" fill="#0F172A">Usability 35%</text>
  <text x="290" y="700" font-family="Inter, sans-serif" font-weight="400" font-size="12" fill="#0F172A">Deep Dive 25%</text>
  <text x="290" y="720" font-family="Inter, sans-serif" font-weight="400" font-size="12" fill="#0F172A">Strategic 20%</text>
  <text x="290" y="740" font-family="Inter, sans-serif" font-weight="400" font-size="12" fill="#0F172A">Other 20%</text>
  
  <!-- Key Insights Table -->
  <rect x="410" y="610" width="740" height="170" rx="6" fill="#FFFFFF" stroke="#E5E9F2" stroke-width="1"/>
  <text x="430" y="640" font-family="Inter, sans-serif" font-weight="600" font-size="18" fill="#0F172A">Key Research Insights</text>
  
  <!-- Table Header -->
  <rect x="430" y="655" width="700" height="30" fill="#F7F9FC"/>
  <text x="450" y="675" font-family="Inter, sans-serif" font-weight="500" font-size="12" fill="#63687E">PRODUCT</text>
  <text x="600" y="675" font-family="Inter, sans-serif" font-weight="500" font-size="12" fill="#63687E">INSIGHT</text>
  <text x="920" y="675" font-family="Inter, sans-serif" font-weight="500" font-size="12" fill="#63687E">STATUS</text>
  <text x="1050" y="675" font-family="Inter, sans-serif" font-weight="500" font-size="12" fill="#63687E">IMPACT</text>
  
  <!-- Table Rows -->
  <line x1="430" y1="685" x2="1130" y2="685" stroke="#E5E9F2" stroke-width="1"/>
  
  <text x="450" y="705" font-family="Inter, sans-serif" font-weight="500" font-size="12" fill="#0F172A">Kubernetes</text>
  <text x="600" y="705" font-family="Inter, sans-serif" font-weight="400" font-size="12" fill="#63687E">Trust requires explainability in AI features</text>
  <rect x="920" y="695" width="80" height="16" rx="4" fill="#DCFCE7"/>
  <text x="960" y="705" font-family="Inter, sans-serif" font-weight="500" font-size="10" text-anchor="middle" fill="#166534">implemented</text>
  <rect x="1050" y="695" width="40" height="16" rx="4" fill="#FEE2E2"/>
  <text x="1070" y="705" font-family="Inter, sans-serif" font-weight="500" font-size="10" text-anchor="middle" fill="#991B1B">high</text>
  
  <line x1="430" y1="715" x2="1130" y2="715" stroke="#E5E9F2" stroke-width="1"/>
  
  <text x="450" y="735" font-family="Inter, sans-serif" font-weight="500" font-size="12" fill="#0F172A">Multi-Product</text>
  <text x="600" y="735" font-family="Inter, sans-serif" font-weight="400" font-size="12" fill="#63687E">Cross-product friction causes 30% drop-off</text>
  <rect x="920" y="725" width="80" height="16" rx="4" fill="#DBEAFE"/>
  <text x="960" y="735" font-family="Inter, sans-serif" font-weight="500" font-size="10" text-anchor="middle" fill="#1E40AF">in progress</text>
  <rect x="1050" y="725" width="40" height="16" rx="4" fill="#FEE2E2"/>
  <text x="1070" y="735" font-family="Inter, sans-serif" font-weight="500" font-size="10" text-anchor="middle" fill="#991B1B">high</text>
  
  <line x1="430" y1="745" x2="1130" y2="745" stroke="#E5E9F2" stroke-width="1"/>
  
  <text x="450" y="765" font-family="Inter, sans-serif" font-weight="500" font-size="12" fill="#0F172A">App Platform</text>
  <text x="600" y="765" font-family="Inter, sans-serif" font-weight="400" font-size="12" fill="#63687E">First-run success defines long-term retention</text>
  <rect x="920" y="755" width="80" height="16" rx="4" fill="#DCFCE7"/>
  <text x="960" y="765" font-family="Inter, sans-serif" font-weight="500" font-size="10" text-anchor="middle" fill="#166534">implemented</text>
  <rect x="1050" y="755" width="40" height="16" rx="4" fill="#FEE2E2"/>
  <text x="1070" y="765" font-family="Inter, sans-serif" font-weight="500" font-size="10" text-anchor="middle" fill="#991B1B">high</text>
  
  <!-- Footer -->
  <text x="600" y="800" font-family="Inter, sans-serif" font-weight="400" font-size="14" text-anchor="middle" fill="#63687E">This dashboard visualizes the strategic impact of research initiatives from 2021-2022</text>
</svg>